<svg width="196" height="71" viewBox="0 0 196 71" fill="none" xmlns="http://www.w3.org/2000/svg">
<path fill-rule="evenodd" clip-rule="evenodd" d="M2.36633e-06 70.0645L22 0L24.8622 0.898727L24.8296 1.00268L30.154 15.577L31 16L30.6005 16.7991L36.176 32.061L40 16L42.816 14.9653L62.8185 69.4044L62 69.7052V71H50H47H2.00003V70.6925L2.36633e-06 70.0645ZM27.8109 17.9061L23.3533 5.70431L18.3448 21.6553L18.4142 21.5858L23.4521 26.6237L27.8109 17.9061ZM24.9428 28.1144L28.755 20.4902L46.1115 68H3.79267L17.7021 23.702L22.5093 28.5093L22.2112 29.1056L24 30L25.4142 28.5858L24.9428 28.1144ZM41.8713 21.0929L38.8578 33.7495L39.2884 33.4136L41.8593 36.7085L45.3201 30.4791L41.8713 21.0929ZM38.043 37.1716L38.4267 35.5604L41.2116 39.1295L42.1407 40.3202L42.8741 39L46.2309 32.958L59.1064 68H50H49.3054L38.043 37.1716ZM65.1758 60.4531V60.7676C65.1758 61.834 65.3308 62.8229 65.6407 63.7344C65.9506 64.6458 66.3972 65.4434 66.9805 66.127C67.5729 66.8014 68.2839 67.3301 69.1133 67.7129C69.9427 68.0866 70.877 68.2734 71.916 68.2734C72.9551 68.2734 73.8848 68.0866 74.7051 67.7129C75.5345 67.3301 76.2409 66.8014 76.8242 66.127C77.4167 65.4434 77.8679 64.6458 78.1778 63.7344C78.4877 62.8229 78.6426 61.834 78.6426 60.7676V60.4531C78.6426 59.3867 78.4877 58.3978 78.1778 57.4863C77.8679 56.5658 77.4167 55.7682 76.8242 55.0938C76.2409 54.4102 75.53 53.8815 74.6914 53.5078C73.862 53.125 72.9278 52.9336 71.8887 52.9336C70.8588 52.9336 69.9291 53.125 69.0996 53.5078C68.2702 53.8815 67.5638 54.4102 66.9805 55.0938C66.3972 55.7682 65.9506 56.5658 65.6407 57.4863C65.3308 58.3978 65.1758 59.3867 65.1758 60.4531ZM67.7051 60.7676V60.4531C67.7051 59.724 67.7917 59.0358 67.9649 58.3887C68.1381 57.7324 68.3978 57.1536 68.7442 56.6523C69.0996 56.1419 69.5371 55.7409 70.0567 55.4492C70.5853 55.1576 71.196 55.0117 71.8887 55.0117C72.5905 55.0117 73.2012 55.1576 73.7207 55.4492C74.2494 55.7409 74.6869 56.1419 75.0332 56.6523C75.3887 57.1536 75.653 57.7324 75.8262 58.3887C76.0085 59.0358 76.0996 59.724 76.0996 60.4531V60.7676C76.0996 61.5059 76.0085 62.2031 75.8262 62.8594C75.653 63.5065 75.3933 64.0807 75.0469 64.582C74.7006 65.0833 74.2631 65.4798 73.7344 65.7715C73.2149 66.054 72.6088 66.1953 71.916 66.1953C71.2142 66.1953 70.599 66.054 70.0703 65.7715C69.5417 65.4798 69.0996 65.0833 68.7442 64.582C68.3978 64.0807 68.1381 63.5065 67.9649 62.8594C67.7917 62.2031 67.7051 61.5059 67.7051 60.7676ZM90.9356 66.5366C90.5034 67.0505 89.9604 67.4609 89.3067 67.7676C88.5684 68.1048 87.6706 68.2734 86.6133 68.2734C85.8933 68.2734 85.2325 68.1686 84.6309 67.959C84.0384 67.7494 83.528 67.4258 83.0996 66.9883C82.6713 66.5508 82.3386 65.9811 82.1016 65.2793C81.8737 64.5775 81.7598 63.7344 81.7598 62.75V53.207H84.2891V62.7773C84.2891 63.4427 84.362 63.9941 84.5078 64.4316C84.6628 64.86 84.8679 65.2018 85.1231 65.457C85.3874 65.7031 85.6791 65.8763 85.9981 65.9766C86.3262 66.0768 86.6634 66.127 87.0098 66.127C88.0853 66.127 88.9375 65.9219 89.5664 65.5117C90.1551 65.1193 90.588 64.6031 90.8653 63.9631V53.207H93.4082V68H90.9883L90.9356 66.5366ZM99.793 57.4431V68H97.2637V53.207H99.6563L99.736 55.0474C99.7637 55.0124 99.7919 54.9777 99.8203 54.9434C100.349 54.3053 100.978 53.8132 101.707 53.4668C102.445 53.1113 103.261 52.9336 104.154 52.9336C104.883 52.9336 105.54 53.0339 106.123 53.2344C106.706 53.4258 107.203 53.7357 107.613 54.1641C108.033 54.5924 108.352 55.1484 108.57 55.832C108.789 56.5065 108.898 57.3314 108.898 58.3066V68H106.355V58.2793C106.355 57.5046 106.242 56.8848 106.014 56.4199C105.786 55.946 105.453 55.6042 105.016 55.3945C104.578 55.1758 104.04 55.0664 103.402 55.0664C102.773 55.0664 102.199 55.1986 101.68 55.4629C101.169 55.7272 100.727 56.0918 100.354 56.5566C100.14 56.8287 99.9533 57.1242 99.793 57.4431ZM118.934 55.1484V53.207H116.172V49.6113H113.643V53.207H110.936V55.1484H113.643V64.3223C113.643 65.3066 113.793 66.0905 114.094 66.6738C114.404 67.248 114.818 67.6582 115.338 67.9043C115.857 68.1504 116.427 68.2734 117.047 68.2734C117.503 68.2734 117.89 68.2415 118.209 68.1777C118.537 68.123 118.801 68.0638 119.002 68L118.988 65.9355C118.87 65.9629 118.692 65.9994 118.455 66.0449C118.227 66.0814 118.008 66.0996 117.799 66.0996C117.516 66.0996 117.252 66.0586 117.006 65.9766C116.76 65.8945 116.559 65.7259 116.404 65.4707C116.249 65.2155 116.172 64.8372 116.172 64.3359V55.1484H118.934ZM136.037 68V50.2539H142.436V48.0938H136.037H133.439H127.055V50.2539H133.439V68H136.037ZM142.969 60.4531V60.7676C142.969 61.834 143.124 62.8229 143.434 63.7344C143.744 64.6458 144.19 65.4434 144.773 66.127C145.366 66.8014 146.077 67.3301 146.906 67.7129C147.736 68.0866 148.67 68.2734 149.709 68.2734C150.748 68.2734 151.678 68.0866 152.498 67.7129C153.327 67.3301 154.034 66.8014 154.617 66.127C155.21 65.4434 155.661 64.6458 155.971 63.7344C156.281 62.8229 156.436 61.834 156.436 60.7676V60.4531C156.436 59.3867 156.281 58.3978 155.971 57.4863C155.661 56.5658 155.21 55.7682 154.617 55.0938C154.034 54.4102 153.323 53.8815 152.484 53.5078C151.655 53.125 150.721 52.9336 149.682 52.9336C148.652 52.9336 147.722 53.125 146.893 53.5078C146.063 53.8815 145.357 54.4102 144.773 55.0938C144.19 55.7682 143.744 56.5658 143.434 57.4863C143.124 58.3978 142.969 59.3867 142.969 60.4531ZM145.498 60.7676V60.4531C145.498 59.724 145.585 59.0358 145.758 58.3887C145.931 57.7324 146.191 57.1536 146.537 56.6523C146.893 56.1419 147.33 55.7409 147.85 55.4492C148.378 55.1576 148.989 55.0117 149.682 55.0117C150.383 55.0117 150.994 55.1576 151.514 55.4492C152.042 55.7409 152.48 56.1419 152.826 56.6523C153.182 57.1536 153.446 57.7324 153.619 58.3887C153.801 59.0358 153.893 59.724 153.893 60.4531V60.7676C153.893 61.5059 153.801 62.2031 153.619 62.8594C153.446 63.5065 153.186 64.0807 152.84 64.582C152.494 65.0833 152.056 65.4798 151.527 65.7715C151.008 66.054 150.402 66.1953 149.709 66.1953C149.007 66.1953 148.392 66.054 147.863 65.7715C147.335 65.4798 146.893 65.0833 146.537 64.582C146.191 64.0807 145.931 63.5065 145.758 62.8594C145.585 62.2031 145.498 61.5059 145.498 60.7676ZM168.729 66.5366C168.296 67.0505 167.753 67.4609 167.1 67.7676C166.361 68.1048 165.464 68.2734 164.406 68.2734C163.686 68.2734 163.025 68.1686 162.424 67.959C161.831 67.7494 161.321 67.4258 160.893 66.9883C160.464 66.5508 160.132 65.9811 159.895 65.2793C159.667 64.5775 159.553 63.7344 159.553 62.75V53.207H162.082V62.7773C162.082 63.4427 162.155 63.9941 162.301 64.4316C162.456 64.86 162.661 65.2018 162.916 65.457C163.18 65.7031 163.472 65.8763 163.791 65.9766C164.119 66.0768 164.456 66.127 164.803 66.127C165.878 66.127 166.73 65.9219 167.359 65.5117C167.948 65.1193 168.381 64.6031 168.658 63.9631V53.207H171.201V68H168.781L168.729 66.5366ZM177.586 57.4831V68H175.057V53.207H177.518L177.568 54.9049C177.574 54.8949 177.58 54.8849 177.586 54.875C177.96 54.2643 178.434 53.7904 179.008 53.4531C179.591 53.1068 180.284 52.9336 181.086 52.9336C181.268 52.9336 181.478 52.9564 181.715 53.002C181.952 53.0384 182.116 53.0794 182.207 53.125L182.193 55.4766C181.984 55.431 181.783 55.4036 181.592 55.3945C181.41 55.3763 181.2 55.3672 180.963 55.3672C180.38 55.3672 179.865 55.4583 179.418 55.6406C178.971 55.8229 178.593 56.0781 178.283 56.4062C177.996 56.7104 177.764 57.0693 177.586 57.4831ZM192.912 63.0645C193.076 63.3743 193.158 63.7116 193.158 64.0762C193.158 64.4863 193.035 64.8509 192.789 65.1699C192.543 65.4889 192.183 65.7396 191.709 65.9219C191.244 66.1042 190.665 66.1953 189.973 66.1953C189.453 66.1953 188.929 66.1133 188.4 65.9492C187.872 65.776 187.425 65.4889 187.061 65.0879C186.696 64.6777 186.495 64.1263 186.459 63.4336H183.916C183.916 64.2539 184.148 65.0332 184.613 65.7715C185.078 66.5098 185.762 67.1113 186.664 67.5762C187.566 68.041 188.669 68.2734 189.973 68.2734C190.839 68.2734 191.618 68.1686 192.311 67.959C193.012 67.7402 193.614 67.4395 194.115 67.0566C194.626 66.6647 195.013 66.1999 195.277 65.6621C195.551 65.1244 195.688 64.5319 195.688 63.8848C195.688 63.0918 195.496 62.4173 195.113 61.8613C194.73 61.3053 194.147 60.8359 193.363 60.4531C192.579 60.0703 191.581 59.7422 190.369 59.4688C189.676 59.3138 189.107 59.1589 188.66 59.0039C188.214 58.849 187.867 58.6849 187.621 58.5117C187.375 58.3294 187.202 58.1335 187.102 57.9238C187.01 57.7051 186.965 57.459 186.965 57.1855C186.965 56.821 187.061 56.4746 187.252 56.1465C187.452 55.8184 187.767 55.5495 188.195 55.3398C188.633 55.1211 189.202 55.0117 189.904 55.0117C190.57 55.0117 191.13 55.1393 191.586 55.3945C192.051 55.6497 192.402 55.9733 192.639 56.3652C192.885 56.748 193.008 57.1445 193.008 57.5547H195.537C195.537 56.707 195.314 55.9368 194.867 55.2441C194.421 54.5423 193.778 53.9818 192.939 53.5625C192.101 53.1432 191.089 52.9336 189.904 52.9336C189.075 52.9336 188.323 53.0475 187.648 53.2754C186.974 53.5033 186.395 53.8177 185.912 54.2188C185.438 54.6198 185.069 55.0801 184.805 55.5996C184.55 56.1191 184.422 56.6706 184.422 57.2539C184.422 57.8646 184.545 58.3978 184.791 58.8535C185.037 59.3092 185.388 59.7057 185.844 60.043C186.309 60.3802 186.869 60.6673 187.525 60.9043C188.191 61.1413 188.934 61.3464 189.754 61.5195C190.729 61.7109 191.458 61.9388 191.941 62.2031C192.434 62.4583 192.757 62.7454 192.912 63.0645Z" fill="black"/>
</svg>
