<svg width="100" height="100" viewBox="0 0 100 100" fill="none" xmlns="http://www.w3.org/2000/svg">
<path d="M49.9998 53.1252C36.7915 53.1252 26.0415 42.3752 26.0415 29.1668C26.0415 15.9585 36.7915 5.2085 49.9998 5.2085C63.2082 5.2085 73.9582 15.9585 73.9582 29.1668C73.9582 42.3752 63.2082 53.1252 49.9998 53.1252ZM49.9998 11.4585C40.2498 11.4585 32.2915 19.4168 32.2915 29.1668C32.2915 38.9168 40.2498 46.8752 49.9998 46.8752C59.7498 46.8752 67.7082 38.9168 67.7082 29.1668C67.7082 19.4168 59.7498 11.4585 49.9998 11.4585Z" fill="#292D32"/>
<path d="M85.7923 94.7917C84.084 94.7917 82.6673 93.375 82.6673 91.6667C82.6673 77.2917 68.0006 65.625 50.0006 65.625C32.0006 65.625 17.334 77.2917 17.334 91.6667C17.334 93.375 15.9173 94.7917 14.209 94.7917C12.5007 94.7917 11.084 93.375 11.084 91.6667C11.084 73.875 28.5423 59.375 50.0006 59.375C71.459 59.375 88.9173 73.875 88.9173 91.6667C88.9173 93.375 87.5006 94.7917 85.7923 94.7917Z" fill="#292D32"/>
</svg>
